<?xml version="1.0" encoding="utf-8"?>
<!-- Generator: Adobe Illustrator 22.0.1, SVG Export Plug-In . SVG Version: 6.00 Build 0)  -->
<svg version="1.1" id="Capa_1" xmlns="http://www.w3.org/2000/svg" xmlns:xlink="http://www.w3.org/1999/xlink" x="0px" y="0px"
	 viewBox="0 0 512 512" style="enable-background:new 0 0 512 512;" xml:space="preserve">
<g>
	<g>
		<path d="M384,34.4C324.8,0.2,255.8-8.9,189.8,8.8c-66.1,17.7-121.3,60-155.5,119.3C-36.3,250.3,5.8,407.2,128,477.8
			C168.2,501,212.2,512,255.6,512c88.5,0,174.8-45.9,222.1-127.9C548.3,261.9,506.2,105,384,34.4z M450,368.1
			c-61.8,106.9-199.1,143.7-306,82c-107-61.8-143.7-199-82-306c29.9-51.8,78.2-88.9,136-104.4c19.3-5.2,38.9-7.7,58.3-7.7
			c38.8,0,77.2,10.1,111.6,30.1C474.9,123.9,511.7,261.1,450,368.1z"/>
	</g>
</g>
<g>
	<g>
		<path d="M364.2,227.1c-7.7-28.9-26.2-53.1-52.2-68c-53.5-30.9-122.1-12.5-153,41c-30.9,53.5-12.5,122.1,41,153
			c17.6,10.2,36.8,15,55.8,15c38.7,0,76.4-20.1,97.2-56C368,286.2,371.9,256,364.2,227.1z M325.3,296.1
			c-10.7,18.5-27.9,31.7-48.6,37.3s-42.2,2.7-60.7-8c-38.2-22.1-51.3-71.1-29.3-109.3c10.7-18.5,27.9-31.7,48.6-37.3
			s42.2-2.7,60.7,8s31.7,27.9,37.2,48.6C338.8,256,336,277.6,325.3,296.1z"/>
	</g>
</g>
<g>
	<g>
		<rect x="174.2" y="383.4" transform="matrix(0.4999 -0.8661 0.8661 0.4999 -203.7564 445.8406)" width="220" height="32"/>
	</g>
</g>
<g>
	<g>
		<rect x="101.9" y="98.9" transform="matrix(0.866 -0.5001 0.5001 0.866 -88.6407 86.9461)" width="32" height="220"/>
	</g>
</g>
<g>
	<g>
		<rect x="256" y="144.1" width="219.9" height="32"/>
	</g>
</g>
</svg>
