<?xml version="1.0" encoding="utf-8"?>
<!-- Generator: Adobe Illustrator 22.0.1, SVG Export Plug-In . SVG Version: 6.00 Build 0)  -->
<svg version="1.1" id="Capa_1" xmlns="http://www.w3.org/2000/svg" xmlns:xlink="http://www.w3.org/1999/xlink" x="0px" y="0px"
	 viewBox="0 0 512 512" style="enable-background:new 0 0 512 512;" xml:space="preserve">
<g>
	<g>
		<path d="M366.9,108H225c-11,0-20,9-20,20s9,20,20,20h141.9c11,0,20-9,20-20S378,108,366.9,108z"/>
	</g>
</g>
<g>
	<g>
		<path d="M366.9,188H225c-11,0-20,9-20,20s9,20,20,20h141.9c11,0,20-9,20-20S378,188,366.9,188z"/>
	</g>
</g>
<g>
	<g>
		<path d="M286,268h-61c-11,0-20,9-20,20s9,20,20,20h61c11,0,20-9,20-20S297.1,268,286,268z"/>
	</g>
</g>
<g>
	<g>
		<path d="M448,272c11,0,20-9,20-20V80c0-44.1-35.9-80-80-80H204c-44.1,0-80,35.9-80,79.9c-44.1,0-80,35.9-80,80v272
			c0,44.1,35.9,80,80,80h194c44.1,0,80-35.9,80-80v-0.6c39.4-4.9,70-38.7,70-79.4c0-11-9-20-20-20s-20,9-20,20c0,22.1-17.9,40-40,40
			l-184,0h0c-10.7,0-20.7-4.2-28.3-11.7c-7.6-7.6-11.7-17.6-11.7-28.3V80c0-22.1,17.9-40,40-40h184c22.1,0,40,17.9,40,40v172
			C428,263.1,437,272,448,272z M204,432L204,432l154,0c0,22-18,40-40,40H124c-22.1,0-40-17.9-40-40v-272c0-22.1,17.9-40,40-40V352
			c0,21.4,8.3,41.5,23.4,56.6C162.5,423.7,182.6,432,204,432z"/>
	</g>
</g>
</svg>
